<svg xmlns="http://www.w3.org/2000/svg" width="960" height="1440" viewBox="0 0 960 1440" font-family="-apple-system,'PingFang SC','Helvetica Neue',sans-serif">
<rect x="0.0" y="0.0" width="960.0" height="1440" fill="#f8fafc" rx="0"/>
<rect x="20.0" y="14.0" width="4.0" height="20" fill="#2563eb" rx="2"/>
<text x="32.0" y="30.0" font-size="17" fill="#0f172a" font-weight="700" text-anchor="start">Gloss 性能趋势 · 热路径</text>
<text x="32.0" y="48.0" font-size="11" fill="#94a3b8" font-weight="400" text-anchor="start">环境：macOS arm64 · Apple M1 (Virtual) · Apple Paravirtual device · 数据随基线采集逐点沉淀</text>
<text x="940.0" y="30.0" font-size="10.5" fill="#94a3b8" font-weight="400" text-anchor="end">3 commits · 最新 40ed185</text>
<rect x="20.0" y="64.0" width="920.0" height="212" fill="#ffffff" rx="10" stroke="#e2e8f0"/>
<text x="36.0" y="85.0" font-size="12.5" fill="#0f172a" font-weight="600" text-anchor="start">缓存键（cache_key · 对数轴）</text>
<rect x="880.0" y="72.0" width="44.0" height="18" fill="#f1f5f9" rx="9"/>
<text x="902.0" y="86.5" font-size="10" fill="#64748b" font-weight="400" text-anchor="middle">仅记录</text>
<rect x="54.0" y="110.0" width="854.0" height="104" fill="#f2f4f7" rx="4"/>
<polyline points="62.0,213.1 481.0,212.5 900.0,214.0" fill="none" stroke="#2563eb" stroke-width="2" stroke-linejoin="round" stroke-linecap="round"/>
<circle cx="62.0" cy="213.1" r="3" fill="#ffffff" stroke="#2563eb" stroke-width="1.8"/>
<circle cx="481.0" cy="212.5" r="3" fill="#ffffff" stroke="#2563eb" stroke-width="1.8"/>
<circle cx="900.0" cy="214.0" r="8" fill="#2563eb" opacity="0.14"/>
<circle cx="900.0" cy="214.0" r="3.5" fill="#2563eb"/>
<polyline points="62.0,185.0 481.0,184.1 900.0,185.7" fill="none" stroke="#059669" stroke-width="2" stroke-linejoin="round" stroke-linecap="round"/>
<circle cx="62.0" cy="185.0" r="3" fill="#ffffff" stroke="#059669" stroke-width="1.8"/>
<circle cx="481.0" cy="184.1" r="3" fill="#ffffff" stroke="#059669" stroke-width="1.8"/>
<circle cx="900.0" cy="185.7" r="8" fill="#059669" opacity="0.14"/>
<circle cx="900.0" cy="185.7" r="3.5" fill="#059669"/>
<polyline points="62.0,137.1 481.0,135.6 900.0,137.6" fill="none" stroke="#d97706" stroke-width="2" stroke-linejoin="round" stroke-linecap="round"/>
<circle cx="62.0" cy="137.1" r="3" fill="#ffffff" stroke="#d97706" stroke-width="1.8"/>
<circle cx="481.0" cy="135.6" r="3" fill="#ffffff" stroke="#d97706" stroke-width="1.8"/>
<circle cx="900.0" cy="137.6" r="8" fill="#d97706" opacity="0.14"/>
<circle cx="900.0" cy="137.6" r="3.5" fill="#d97706"/>
<polyline points="62.0,127.0 481.0,125.9 900.0,127.8" fill="none" stroke="#7c3aed" stroke-width="2" stroke-linejoin="round" stroke-linecap="round"/>
<circle cx="62.0" cy="127.0" r="3" fill="#ffffff" stroke="#7c3aed" stroke-width="1.8"/>
<circle cx="481.0" cy="125.9" r="3" fill="#ffffff" stroke="#7c3aed" stroke-width="1.8"/>
<circle cx="900.0" cy="127.8" r="8" fill="#7c3aed" opacity="0.14"/>
<circle cx="900.0" cy="127.8" r="3.5" fill="#7c3aed"/>
<text x="900.0" y="205.0" font-size="10.5" fill="#2563eb" font-weight="600" text-anchor="middle" stroke="#ffffff" stroke-width="2.5" paint-order="stroke">142 ns</text>
<text x="900.0" y="176.7" font-size="10.5" fill="#059669" font-weight="600" text-anchor="middle" stroke="#ffffff" stroke-width="2.5" paint-order="stroke">7.6 µs</text>
<text x="900.0" y="128.6" font-size="10.5" fill="#d97706" font-weight="600" text-anchor="middle" stroke="#ffffff" stroke-width="2.5" paint-order="stroke">6.7 ms</text>
<text x="900.0" y="115.6" font-size="10.5" fill="#7c3aed" font-weight="600" text-anchor="middle" stroke="#ffffff" stroke-width="2.5" paint-order="stroke">26.6 ms</text>
<text x="62.0" y="230.0" font-size="10" fill="#94a3b8" font-weight="400" text-anchor="middle">0e8af9b</text>
<text x="62.0" y="242.0" font-size="9" fill="#cbd5e1" font-weight="400" text-anchor="middle">10-08</text>
<text x="481.0" y="230.0" font-size="10" fill="#94a3b8" font-weight="400" text-anchor="middle">d55fd4a</text>
<text x="481.0" y="242.0" font-size="9" fill="#cbd5e1" font-weight="400" text-anchor="middle">10-08</text>
<text x="900.0" y="230.0" font-size="10" fill="#94a3b8" font-weight="400" text-anchor="middle">40ed185</text>
<text x="900.0" y="242.0" font-size="9" fill="#cbd5e1" font-weight="400" text-anchor="middle">10-08</text>
<line x1="36.0" y1="254.5" x2="52.0" y2="254.5" stroke="#2563eb" stroke-width="2" stroke-linecap="round"/>
<circle cx="44.0" cy="254.5" r="2.6" fill="#ffffff" stroke="#2563eb" stroke-width="1.6"/>
<text x="57.0" y="258.0" font-size="10.5" fill="#334155" font-weight="400" text-anchor="start">text/short</text>
<line x1="250.0" y1="254.5" x2="266.0" y2="254.5" stroke="#059669" stroke-width="2" stroke-linecap="round"/>
<circle cx="258.0" cy="254.5" r="2.6" fill="#ffffff" stroke="#059669" stroke-width="1.6"/>
<text x="271.0" y="258.0" font-size="10.5" fill="#334155" font-weight="400" text-anchor="start">text/long</text>
<line x1="464.0" y1="254.5" x2="480.0" y2="254.5" stroke="#d97706" stroke-width="2" stroke-linecap="round"/>
<circle cx="472.0" cy="254.5" r="2.6" fill="#ffffff" stroke="#d97706" stroke-width="1.6"/>
<text x="485.0" y="258.0" font-size="10.5" fill="#334155" font-weight="400" text-anchor="start">image/1mb</text>
<line x1="678.0" y1="254.5" x2="694.0" y2="254.5" stroke="#7c3aed" stroke-width="2" stroke-linecap="round"/>
<circle cx="686.0" cy="254.5" r="2.6" fill="#ffffff" stroke="#7c3aed" stroke-width="1.6"/>
<text x="699.0" y="258.0" font-size="10.5" fill="#334155" font-weight="400" text-anchor="start">image/4mb</text>
<rect x="20.0" y="290.0" width="920.0" height="212" fill="#ffffff" rx="10" stroke="#e2e8f0"/>
<text x="36.0" y="311.0" font-size="12.5" fill="#0f172a" font-weight="600" text-anchor="start">结构化解析（complete · 对数轴）</text>
<rect x="880.0" y="298.0" width="44.0" height="18" fill="#f1f5f9" rx="9"/>
<text x="902.0" y="312.5" font-size="10" fill="#64748b" font-weight="400" text-anchor="middle">仅记录</text>
<rect x="54.0" y="336.0" width="854.0" height="104" fill="#f2f4f7" rx="4"/>
<polyline points="62.0,398.9 481.0,389.8 900.0,398.2" fill="none" stroke="#2563eb" stroke-width="2" stroke-linejoin="round" stroke-linecap="round"/>
<circle cx="62.0" cy="398.9" r="3" fill="#ffffff" stroke="#2563eb" stroke-width="1.8"/>
<circle cx="481.0" cy="389.8" r="3" fill="#ffffff" stroke="#2563eb" stroke-width="1.8"/>
<circle cx="900.0" cy="398.2" r="8" fill="#2563eb" opacity="0.14"/>
<circle cx="900.0" cy="398.2" r="3.5" fill="#2563eb"/>
<polyline points="62.0,353.0 481.0,351.9 900.0,355.3" fill="none" stroke="#059669" stroke-width="2" stroke-linejoin="round" stroke-linecap="round"/>
<circle cx="62.0" cy="353.0" r="3" fill="#ffffff" stroke="#059669" stroke-width="1.8"/>
<circle cx="481.0" cy="351.9" r="3" fill="#ffffff" stroke="#059669" stroke-width="1.8"/>
<circle cx="900.0" cy="355.3" r="8" fill="#059669" opacity="0.14"/>
<circle cx="900.0" cy="355.3" r="3.5" fill="#059669"/>
<polyline points="62.0,419.2 481.0,417.5 900.0,423.1" fill="none" stroke="#d97706" stroke-width="2" stroke-linejoin="round" stroke-linecap="round"/>
<circle cx="62.0" cy="419.2" r="3" fill="#ffffff" stroke="#d97706" stroke-width="1.8"/>
<circle cx="481.0" cy="417.5" r="3" fill="#ffffff" stroke="#d97706" stroke-width="1.8"/>
<circle cx="900.0" cy="423.1" r="8" fill="#d97706" opacity="0.14"/>
<circle cx="900.0" cy="423.1" r="3.5" fill="#d97706"/>
<polyline points="62.0,436.8 481.0,434.2 900.0,440.0" fill="none" stroke="#7c3aed" stroke-width="2" stroke-linejoin="round" stroke-linecap="round"/>
<circle cx="62.0" cy="436.8" r="3" fill="#ffffff" stroke="#7c3aed" stroke-width="1.8"/>
<circle cx="481.0" cy="434.2" r="3" fill="#ffffff" stroke="#7c3aed" stroke-width="1.8"/>
<circle cx="900.0" cy="440.0" r="8" fill="#7c3aed" opacity="0.14"/>
<circle cx="900.0" cy="440.0" r="3.5" fill="#7c3aed"/>
<polyline points="62.0,402.5 481.0,400.2 900.0,407.0" fill="none" stroke="#0891b2" stroke-width="2" stroke-linejoin="round" stroke-linecap="round"/>
<circle cx="62.0" cy="402.5" r="3" fill="#ffffff" stroke="#0891b2" stroke-width="1.8"/>
<circle cx="481.0" cy="400.2" r="3" fill="#ffffff" stroke="#0891b2" stroke-width="1.8"/>
<circle cx="900.0" cy="407.0" r="8" fill="#0891b2" opacity="0.14"/>
<circle cx="900.0" cy="407.0" r="3.5" fill="#0891b2"/>
<text x="900.0" y="431.0" font-size="10.5" fill="#7c3aed" font-weight="600" text-anchor="middle" stroke="#ffffff" stroke-width="2.5" paint-order="stroke">285 ns</text>
<text x="900.0" y="414.1" font-size="10.5" fill="#d97706" font-weight="600" text-anchor="middle" stroke="#ffffff" stroke-width="2.5" paint-order="stroke">557 ns</text>
<text x="900.0" y="398.0" font-size="10.5" fill="#0891b2" font-weight="600" text-anchor="middle" stroke="#ffffff" stroke-width="2.5" paint-order="stroke">1.1 µs</text>
<text x="900.0" y="385.0" font-size="10.5" fill="#2563eb" font-weight="600" text-anchor="middle" stroke="#ffffff" stroke-width="2.5" paint-order="stroke">1.5 µs</text>
<text x="900.0" y="346.3" font-size="10.5" fill="#059669" font-weight="600" text-anchor="middle" stroke="#ffffff" stroke-width="2.5" paint-order="stroke">8.2 µs</text>
<text x="62.0" y="456.0" font-size="10" fill="#94a3b8" font-weight="400" text-anchor="middle">0e8af9b</text>
<text x="62.0" y="468.0" font-size="9" fill="#cbd5e1" font-weight="400" text-anchor="middle">10-08</text>
<text x="481.0" y="456.0" font-size="10" fill="#94a3b8" font-weight="400" text-anchor="middle">d55fd4a</text>
<text x="481.0" y="468.0" font-size="9" fill="#cbd5e1" font-weight="400" text-anchor="middle">10-08</text>
<text x="900.0" y="456.0" font-size="10" fill="#94a3b8" font-weight="400" text-anchor="middle">40ed185</text>
<text x="900.0" y="468.0" font-size="9" fill="#cbd5e1" font-weight="400" text-anchor="middle">10-08</text>
<line x1="36.0" y1="480.5" x2="52.0" y2="480.5" stroke="#2563eb" stroke-width="2" stroke-linecap="round"/>
<circle cx="44.0" cy="480.5" r="2.6" fill="#ffffff" stroke="#2563eb" stroke-width="1.6"/>
<text x="57.0" y="484.0" font-size="10.5" fill="#334155" font-weight="400" text-anchor="start">word_card/ok</text>
<line x1="250.0" y1="480.5" x2="266.0" y2="480.5" stroke="#059669" stroke-width="2" stroke-linecap="round"/>
<circle cx="258.0" cy="480.5" r="2.6" fill="#ffffff" stroke="#059669" stroke-width="1.6"/>
<text x="271.0" y="484.0" font-size="10.5" fill="#334155" font-weight="400" text-anchor="start">word_card/many_senses</text>
<line x1="464.0" y1="480.5" x2="480.0" y2="480.5" stroke="#d97706" stroke-width="2" stroke-linecap="round"/>
<circle cx="472.0" cy="480.5" r="2.6" fill="#ffffff" stroke="#d97706" stroke-width="1.6"/>
<text x="485.0" y="484.0" font-size="10.5" fill="#334155" font-weight="400" text-anchor="start">fence_missing</text>
<line x1="678.0" y1="480.5" x2="694.0" y2="480.5" stroke="#7c3aed" stroke-width="2" stroke-linecap="round"/>
<circle cx="686.0" cy="480.5" r="2.6" fill="#ffffff" stroke="#7c3aed" stroke-width="1.6"/>
<text x="699.0" y="484.0" font-size="10.5" fill="#334155" font-weight="400" text-anchor="start">json_broken</text>
<line x1="36.0" y1="494.5" x2="52.0" y2="494.5" stroke="#0891b2" stroke-width="2" stroke-linecap="round"/>
<circle cx="44.0" cy="494.5" r="2.6" fill="#ffffff" stroke="#0891b2" stroke-width="1.6"/>
<text x="57.0" y="498.0" font-size="10.5" fill="#334155" font-weight="400" text-anchor="start">ocr/ok</text>
<rect x="20.0" y="516.0" width="920.0" height="212" fill="#ffffff" rx="10" stroke="#e2e8f0"/>
<text x="36.0" y="537.0" font-size="12.5" fill="#0f172a" font-weight="600" text-anchor="start">提示词渲染（prompt_render · 对数轴）</text>
<rect x="880.0" y="524.0" width="44.0" height="18" fill="#f1f5f9" rx="9"/>
<text x="902.0" y="538.5" font-size="10" fill="#64748b" font-weight="400" text-anchor="middle">仅记录</text>
<rect x="54.0" y="562.0" width="854.0" height="104" fill="#f2f4f7" rx="4"/>
<polyline points="62.0,639.2 481.0,612.0 900.0,666.0" fill="none" stroke="#2563eb" stroke-width="2" stroke-linejoin="round" stroke-linecap="round"/>
<circle cx="62.0" cy="639.2" r="3" fill="#ffffff" stroke="#2563eb" stroke-width="1.8"/>
<circle cx="481.0" cy="612.0" r="3" fill="#ffffff" stroke="#2563eb" stroke-width="1.8"/>
<circle cx="900.0" cy="666.0" r="8" fill="#2563eb" opacity="0.14"/>
<circle cx="900.0" cy="666.0" r="3.5" fill="#2563eb"/>
<polyline points="62.0,602.9 481.0,577.9 900.0,615.6" fill="none" stroke="#059669" stroke-width="2" stroke-linejoin="round" stroke-linecap="round"/>
<circle cx="62.0" cy="602.9" r="3" fill="#ffffff" stroke="#059669" stroke-width="1.8"/>
<circle cx="481.0" cy="577.9" r="3" fill="#ffffff" stroke="#059669" stroke-width="1.8"/>
<circle cx="900.0" cy="615.6" r="8" fill="#059669" opacity="0.14"/>
<circle cx="900.0" cy="615.6" r="3.5" fill="#059669"/>
<text x="900.0" y="657.0" font-size="10.5" fill="#2563eb" font-weight="600" text-anchor="middle" stroke="#ffffff" stroke-width="2.5" paint-order="stroke">488 ns</text>
<text x="900.0" y="606.6" font-size="10.5" fill="#059669" font-weight="600" text-anchor="middle" stroke="#ffffff" stroke-width="2.5" paint-order="stroke">645 ns</text>
<text x="62.0" y="682.0" font-size="10" fill="#94a3b8" font-weight="400" text-anchor="middle">0e8af9b</text>
<text x="62.0" y="694.0" font-size="9" fill="#cbd5e1" font-weight="400" text-anchor="middle">10-08</text>
<text x="481.0" y="682.0" font-size="10" fill="#94a3b8" font-weight="400" text-anchor="middle">d55fd4a</text>
<text x="481.0" y="694.0" font-size="9" fill="#cbd5e1" font-weight="400" text-anchor="middle">10-08</text>
<text x="900.0" y="682.0" font-size="10" fill="#94a3b8" font-weight="400" text-anchor="middle">40ed185</text>
<text x="900.0" y="694.0" font-size="9" fill="#cbd5e1" font-weight="400" text-anchor="middle">10-08</text>
<line x1="36.0" y1="706.5" x2="52.0" y2="706.5" stroke="#2563eb" stroke-width="2" stroke-linecap="round"/>
<circle cx="44.0" cy="706.5" r="2.6" fill="#ffffff" stroke="#2563eb" stroke-width="1.6"/>
<text x="57.0" y="710.0" font-size="10.5" fill="#334155" font-weight="400" text-anchor="start">word/short</text>
<line x1="250.0" y1="706.5" x2="266.0" y2="706.5" stroke="#059669" stroke-width="2" stroke-linecap="round"/>
<circle cx="258.0" cy="706.5" r="2.6" fill="#ffffff" stroke="#059669" stroke-width="1.6"/>
<text x="271.0" y="710.0" font-size="10.5" fill="#334155" font-weight="400" text-anchor="start">code/long</text>
<rect x="20.0" y="742.0" width="920.0" height="212" fill="#ffffff" rx="10" stroke="#e2e8f0"/>
<text x="36.0" y="763.0" font-size="12.5" fill="#0f172a" font-weight="600" text-anchor="start">任务缓存（task_cache · 对数轴）</text>
<rect x="880.0" y="750.0" width="44.0" height="18" fill="#f1f5f9" rx="9"/>
<text x="902.0" y="764.5" font-size="10" fill="#64748b" font-weight="400" text-anchor="middle">仅记录</text>
<rect x="54.0" y="788.0" width="854.0" height="104" fill="#f2f4f7" rx="4"/>
<polyline points="62.0,862.2 481.0,853.8 900.0,865.2" fill="none" stroke="#2563eb" stroke-width="2" stroke-linejoin="round" stroke-linecap="round"/>
<circle cx="62.0" cy="862.2" r="3" fill="#ffffff" stroke="#2563eb" stroke-width="1.8"/>
<circle cx="481.0" cy="853.8" r="3" fill="#ffffff" stroke="#2563eb" stroke-width="1.8"/>
<circle cx="900.0" cy="865.2" r="8" fill="#2563eb" opacity="0.14"/>
<circle cx="900.0" cy="865.2" r="3.5" fill="#2563eb"/>
<polyline points="62.0,890.2 481.0,885.6 900.0,892.0" fill="none" stroke="#059669" stroke-width="2" stroke-linejoin="round" stroke-linecap="round"/>
<circle cx="62.0" cy="890.2" r="3" fill="#ffffff" stroke="#059669" stroke-width="1.8"/>
<circle cx="481.0" cy="885.6" r="3" fill="#ffffff" stroke="#059669" stroke-width="1.8"/>
<circle cx="900.0" cy="892.0" r="8" fill="#059669" opacity="0.14"/>
<circle cx="900.0" cy="892.0" r="3.5" fill="#059669"/>
<polyline points="62.0,811.3 481.0,803.9 900.0,813.1" fill="none" stroke="#d97706" stroke-width="2" stroke-linejoin="round" stroke-linecap="round"/>
<circle cx="62.0" cy="811.3" r="3" fill="#ffffff" stroke="#d97706" stroke-width="1.8"/>
<circle cx="481.0" cy="803.9" r="3" fill="#ffffff" stroke="#d97706" stroke-width="1.8"/>
<circle cx="900.0" cy="813.1" r="8" fill="#d97706" opacity="0.14"/>
<circle cx="900.0" cy="813.1" r="3.5" fill="#d97706"/>
<polyline points="62.0,819.5 481.0,818.1 900.0,826.9" fill="none" stroke="#7c3aed" stroke-width="2" stroke-linejoin="round" stroke-linecap="round"/>
<circle cx="62.0" cy="819.5" r="3" fill="#ffffff" stroke="#7c3aed" stroke-width="1.8"/>
<circle cx="481.0" cy="818.1" r="3" fill="#ffffff" stroke="#7c3aed" stroke-width="1.8"/>
<circle cx="900.0" cy="826.9" r="8" fill="#7c3aed" opacity="0.14"/>
<circle cx="900.0" cy="826.9" r="3.5" fill="#7c3aed"/>
<text x="900.0" y="883.0" font-size="10.5" fill="#059669" font-weight="600" text-anchor="middle" stroke="#ffffff" stroke-width="2.5" paint-order="stroke">75 ns</text>
<text x="900.0" y="856.2" font-size="10.5" fill="#2563eb" font-weight="600" text-anchor="middle" stroke="#ffffff" stroke-width="2.5" paint-order="stroke">160 ns</text>
<text x="900.0" y="817.9" font-size="10.5" fill="#7c3aed" font-weight="600" text-anchor="middle" stroke="#ffffff" stroke-width="2.5" paint-order="stroke">473 ns</text>
<text x="900.0" y="804.1" font-size="10.5" fill="#d97706" font-weight="600" text-anchor="middle" stroke="#ffffff" stroke-width="2.5" paint-order="stroke">698 ns</text>
<text x="62.0" y="908.0" font-size="10" fill="#94a3b8" font-weight="400" text-anchor="middle">0e8af9b</text>
<text x="62.0" y="920.0" font-size="9" fill="#cbd5e1" font-weight="400" text-anchor="middle">10-08</text>
<text x="481.0" y="908.0" font-size="10" fill="#94a3b8" font-weight="400" text-anchor="middle">d55fd4a</text>
<text x="481.0" y="920.0" font-size="9" fill="#cbd5e1" font-weight="400" text-anchor="middle">10-08</text>
<text x="900.0" y="908.0" font-size="10" fill="#94a3b8" font-weight="400" text-anchor="middle">40ed185</text>
<text x="900.0" y="920.0" font-size="9" fill="#cbd5e1" font-weight="400" text-anchor="middle">10-08</text>
<line x1="36.0" y1="932.5" x2="52.0" y2="932.5" stroke="#2563eb" stroke-width="2" stroke-linecap="round"/>
<circle cx="44.0" cy="932.5" r="2.6" fill="#ffffff" stroke="#2563eb" stroke-width="1.6"/>
<text x="57.0" y="936.0" font-size="10.5" fill="#334155" font-weight="400" text-anchor="start">get/hit</text>
<line x1="250.0" y1="932.5" x2="266.0" y2="932.5" stroke="#059669" stroke-width="2" stroke-linecap="round"/>
<circle cx="258.0" cy="932.5" r="2.6" fill="#ffffff" stroke="#059669" stroke-width="1.6"/>
<text x="271.0" y="936.0" font-size="10.5" fill="#334155" font-weight="400" text-anchor="start">get/miss</text>
<line x1="464.0" y1="932.5" x2="480.0" y2="932.5" stroke="#d97706" stroke-width="2" stroke-linecap="round"/>
<circle cx="472.0" cy="932.5" r="2.6" fill="#ffffff" stroke="#d97706" stroke-width="1.6"/>
<text x="485.0" y="936.0" font-size="10.5" fill="#334155" font-weight="400" text-anchor="start">set/same_key</text>
<line x1="678.0" y1="932.5" x2="694.0" y2="932.5" stroke="#7c3aed" stroke-width="2" stroke-linecap="round"/>
<circle cx="686.0" cy="932.5" r="2.6" fill="#ffffff" stroke="#7c3aed" stroke-width="1.6"/>
<text x="699.0" y="936.0" font-size="10.5" fill="#334155" font-weight="400" text-anchor="start">set/new_key</text>
<rect x="20.0" y="968.0" width="920.0" height="212" fill="#ffffff" rx="10" stroke="#e2e8f0"/>
<text x="36.0" y="989.0" font-size="12.5" fill="#0f172a" font-weight="600" text-anchor="start">clone 热点分配合计（allocs / bytes · 对数轴）</text>
<rect x="880.0" y="976.0" width="44.0" height="18" fill="#f1f5f9" rx="9"/>
<text x="902.0" y="990.5" font-size="10" fill="#64748b" font-weight="400" text-anchor="middle">仅记录</text>
<rect x="54.0" y="1014.0" width="854.0" height="104" fill="#f2f4f7" rx="4"/>
<polyline points="62.0,1118.0 481.0,1118.0 900.0,1118.0" fill="none" stroke="#2563eb" stroke-width="2" stroke-linejoin="round" stroke-linecap="round"/>
<circle cx="62.0" cy="1118.0" r="3" fill="#ffffff" stroke="#2563eb" stroke-width="1.8"/>
<circle cx="481.0" cy="1118.0" r="3" fill="#ffffff" stroke="#2563eb" stroke-width="1.8"/>
<circle cx="900.0" cy="1118.0" r="8" fill="#2563eb" opacity="0.14"/>
<circle cx="900.0" cy="1118.0" r="3.5" fill="#2563eb"/>
<polyline points="62.0,1029.9 481.0,1029.9 900.0,1029.9" fill="none" stroke="#059669" stroke-width="2" stroke-linejoin="round" stroke-linecap="round"/>
<circle cx="62.0" cy="1029.9" r="3" fill="#ffffff" stroke="#059669" stroke-width="1.8"/>
<circle cx="481.0" cy="1029.9" r="3" fill="#ffffff" stroke="#059669" stroke-width="1.8"/>
<circle cx="900.0" cy="1029.9" r="8" fill="#059669" opacity="0.14"/>
<circle cx="900.0" cy="1029.9" r="3.5" fill="#059669"/>
<text x="900.0" y="1109.0" font-size="10.5" fill="#2563eb" font-weight="600" text-anchor="middle" stroke="#ffffff" stroke-width="2.5" paint-order="stroke">410</text>
<text x="900.0" y="1020.9" font-size="10.5" fill="#059669" font-weight="600" text-anchor="middle" stroke="#ffffff" stroke-width="2.5" paint-order="stroke">106.5 KB</text>
<text x="62.0" y="1134.0" font-size="10" fill="#94a3b8" font-weight="400" text-anchor="middle">0e8af9b</text>
<text x="62.0" y="1146.0" font-size="9" fill="#cbd5e1" font-weight="400" text-anchor="middle">10-08</text>
<text x="481.0" y="1134.0" font-size="10" fill="#94a3b8" font-weight="400" text-anchor="middle">d55fd4a</text>
<text x="481.0" y="1146.0" font-size="9" fill="#cbd5e1" font-weight="400" text-anchor="middle">10-08</text>
<text x="900.0" y="1134.0" font-size="10" fill="#94a3b8" font-weight="400" text-anchor="middle">40ed185</text>
<text x="900.0" y="1146.0" font-size="9" fill="#cbd5e1" font-weight="400" text-anchor="middle">10-08</text>
<line x1="36.0" y1="1158.5" x2="52.0" y2="1158.5" stroke="#2563eb" stroke-width="2" stroke-linecap="round"/>
<circle cx="44.0" cy="1158.5" r="2.6" fill="#ffffff" stroke="#2563eb" stroke-width="1.6"/>
<text x="57.0" y="1162.0" font-size="10.5" fill="#334155" font-weight="400" text-anchor="start">allocs</text>
<line x1="250.0" y1="1158.5" x2="266.0" y2="1158.5" stroke="#059669" stroke-width="2" stroke-linecap="round"/>
<circle cx="258.0" cy="1158.5" r="2.6" fill="#ffffff" stroke="#059669" stroke-width="1.6"/>
<text x="271.0" y="1162.0" font-size="10.5" fill="#334155" font-weight="400" text-anchor="start">bytes</text>
<rect x="20.0" y="1194.0" width="920.0" height="212" fill="#ffffff" rx="10" stroke="#e2e8f0"/>
<text x="36.0" y="1215.0" font-size="12.5" fill="#0f172a" font-weight="600" text-anchor="start">clone 总数与密度（total / density · 对数轴）</text>
<rect x="880.0" y="1202.0" width="44.0" height="18" fill="#f1f5f9" rx="9"/>
<text x="902.0" y="1216.5" font-size="10" fill="#64748b" font-weight="400" text-anchor="middle">仅记录</text>
<rect x="54.0" y="1240.0" width="854.0" height="104" fill="#f2f4f7" rx="4"/>
<polyline points="62.0,1255.9 481.0,1255.9 900.0,1255.9" fill="none" stroke="#2563eb" stroke-width="2" stroke-linejoin="round" stroke-linecap="round"/>
<circle cx="62.0" cy="1255.9" r="3" fill="#ffffff" stroke="#2563eb" stroke-width="1.8"/>
<circle cx="481.0" cy="1255.9" r="3" fill="#ffffff" stroke="#2563eb" stroke-width="1.8"/>
<circle cx="900.0" cy="1255.9" r="8" fill="#2563eb" opacity="0.14"/>
<circle cx="900.0" cy="1255.9" r="3.5" fill="#2563eb"/>
<polyline points="62.0,1344.0 481.0,1344.0 900.0,1344.0" fill="none" stroke="#059669" stroke-width="2" stroke-linejoin="round" stroke-linecap="round"/>
<circle cx="62.0" cy="1344.0" r="3" fill="#ffffff" stroke="#059669" stroke-width="1.8"/>
<circle cx="481.0" cy="1344.0" r="3" fill="#ffffff" stroke="#059669" stroke-width="1.8"/>
<circle cx="900.0" cy="1344.0" r="8" fill="#059669" opacity="0.14"/>
<circle cx="900.0" cy="1344.0" r="3.5" fill="#059669"/>
<text x="900.0" y="1335.0" font-size="10.5" fill="#059669" font-weight="600" text-anchor="middle" stroke="#ffffff" stroke-width="2.5" paint-order="stroke">5.8</text>
<text x="900.0" y="1246.9" font-size="10.5" fill="#2563eb" font-weight="600" text-anchor="middle" stroke="#ffffff" stroke-width="2.5" paint-order="stroke">68</text>
<text x="62.0" y="1360.0" font-size="10" fill="#94a3b8" font-weight="400" text-anchor="middle">0e8af9b</text>
<text x="62.0" y="1372.0" font-size="9" fill="#cbd5e1" font-weight="400" text-anchor="middle">10-08</text>
<text x="481.0" y="1360.0" font-size="10" fill="#94a3b8" font-weight="400" text-anchor="middle">d55fd4a</text>
<text x="481.0" y="1372.0" font-size="9" fill="#cbd5e1" font-weight="400" text-anchor="middle">10-08</text>
<text x="900.0" y="1360.0" font-size="10" fill="#94a3b8" font-weight="400" text-anchor="middle">40ed185</text>
<text x="900.0" y="1372.0" font-size="9" fill="#cbd5e1" font-weight="400" text-anchor="middle">10-08</text>
<line x1="36.0" y1="1384.5" x2="52.0" y2="1384.5" stroke="#2563eb" stroke-width="2" stroke-linecap="round"/>
<circle cx="44.0" cy="1384.5" r="2.6" fill="#ffffff" stroke="#2563eb" stroke-width="1.6"/>
<text x="57.0" y="1388.0" font-size="10.5" fill="#334155" font-weight="400" text-anchor="start">total</text>
<line x1="250.0" y1="1384.5" x2="266.0" y2="1384.5" stroke="#059669" stroke-width="2" stroke-linecap="round"/>
<circle cx="258.0" cy="1384.5" r="2.6" fill="#ffffff" stroke="#059669" stroke-width="1.6"/>
<text x="271.0" y="1388.0" font-size="10.5" fill="#334155" font-weight="400" text-anchor="start">density</text>
<text x="32.0" y="1432.0" font-size="9.5" fill="#94a3b8" font-weight="400" text-anchor="start">组内对数轴，线端标注为该线最新值 · 缺源即缺段 · 图表为 history.jsonl 的派生工件，由 perf-chart.py 生成</text>
</svg>
